# xmcd
#
# Track frame offsets:
#	150
#	6075
#	29300
#	50085
#	64492
#	83140
#	111737
#	131237
#	152582
#	171812
#
# Disc length: 2377 seconds
# Revision: 0
# Processed by: cddbd v1.5.2PL0 Copyright (c) Steve Scherf et al.
# Submitted via: dBpowerAMP V12.0
#
DISCID=8b09470a
DTITLE=Muddy Waters - Paris, France 1968
DYEAR=1968
DGENRE=
TTITLE0=Intro
TTITLE1=Back At The Chicken Shack
TTITLE2=Blues and Trouble
TTITLE3=Hoochie Coochie Man
TTITLE4=Blow Wind Blow
TTITLE5=Long Distance Call
TTITLE6=Mr. Highway Man
TTITLE7=Worried Life Blues
TTITLE8=Got My Mojo Workin'
TTITLE9=Mojo Encore
EXTD=
EXTT0=
EXTT1=
EXTT2=
EXTT3=
EXTT4=
EXTT5=
EXTT6=
EXTT7=
EXTT8=
EXTT9=
PLAYORDER=
